<?xml version="1.0" encoding="utf-8"?>
<!-- Generator: Adobe Illustrator 27.4.1, SVG Export Plug-In . SVG Version: 6.00 Build 0)  -->
<svg version="1.1" id="レイヤー_1" xmlns="http://www.w3.org/2000/svg" xmlns:xlink="http://www.w3.org/1999/xlink" x="0px"
	 y="0px" viewBox="0 0 448 284" style="enable-background:new 0 0 448 284;" xml:space="preserve">
<style type="text/css">
	.st0{fill:#FFFFFF;}
</style>
<path class="st0" d="M-185.5-115.9h-34.9v91.1h2.3v-41.6h31.1c18.2,0,28.4-9.2,28.4-25C-158.6-107.5-170.3-115.9-185.5-115.9z
	 M-187-68.5h-31.1v-45.2h32.5c13.6,0,24.7,7.4,24.7,22.4C-160.9-76.7-170.3-68.5-187-68.5z"/>
<path class="st0" d="M-75.2-49.3c-1.3-11-5.2-18-18.2-19.6c13.3-1.9,20.9-10.2,20.9-23.3c0-14.8-10.1-23.7-25.9-23.7h-39.7v91.1h2.3
	V-68h33.4c20.6,0,23.7,8.6,25,19.3l2.7,23.9h2.4L-75.2-49.3z M-135.8-70.2v-43.5h37.2c14.8,0,23.7,7.9,23.7,21.6
	c0,13.8-9.6,21.9-25.6,21.9H-135.8z"/>
<path class="st0" d="M-7.8-23.2c26.1,0,42-19.7,42-47.1c0-27.5-15.9-47.1-42-47.1c-25.7,0-41.6,19.6-41.6,47.1
	C-49.4-43-33.5-23.2-7.8-23.2z M-7.7-25.4c-24.4,0-39.4-18.7-39.4-44.9c0-26.5,15-44.9,39.4-44.9s39.6,18.4,39.6,44.9
	C31.9-44.1,16.9-25.4-7.7-25.4z"/>
<path class="st0" d="M96.7-23.2c26.1,0,42-19.7,42-47.1c0-27.5-15.9-47.1-42-47.1c-25.7,0-41.6,19.6-41.6,47.1
	C55.1-43,71-23.2,96.7-23.2z M96.8-25.4c-24.4,0-39.4-18.7-39.4-44.9c0-26.5,15-44.9,39.4-44.9s39.6,18.4,39.6,44.9
	C136.4-44.1,121.4-25.4,96.8-25.4z"/>
<path class="st0" d="M223.5-113.7v-2.2H163v91.1h2.3V-71h50.9v-2.2h-50.9v-40.6L223.5-113.7L223.5-113.7z"/>
<path class="st0" d="M-182.2,114.8c26.1,0,42-19.7,42-47.1c0-27.5-15.9-47.1-42-47.1c-25.7,0-41.6,19.6-41.6,47.1
	C-223.8,95-207.9,114.8-182.2,114.8z M-182,112.6c-24.4,0-39.4-18.7-39.4-44.9c0-26.5,15-44.9,39.4-44.9s39.6,18.4,39.6,44.9
	C-142.5,93.9-157.5,112.6-182,112.6z"/>
<path class="st0" d="M-55.4,24.3v-2.2h-60.5v91.1h2.3V67.1h50.9v-2.2h-50.9V24.3H-55.4z"/>
<path class="st0" d="M187.3,68L221,24.3h-2.8l-29.4,38.4l-2.8,3.7l-2.7-3.8l-29.6-38.3h-2.9L184.6,68l-36.7,47.4h2.9l32.3-42
	l2.8-3.7l2.8,3.7l32.1,42h2.9L187.3,68z"/>
</svg>
