<?xml version="1.0" encoding="utf-8"?>
<!-- Generator: Adobe Illustrator 27.3.1, SVG Export Plug-In . SVG Version: 6.00 Build 0)  -->
<svg version="1.1" id="レイヤー_1" xmlns="http://www.w3.org/2000/svg" xmlns:xlink="http://www.w3.org/1999/xlink" x="0px"
	 y="0px" viewBox="0 0 481 284" style="enable-background:new 0 0 481 284;" xml:space="preserve">
<style type="text/css">
	.st0{fill:#FFFFFF;}
</style>
<path class="st0" d="M-198.7-139.6h-37.9v91.1h10.8v-35.1h27.1c20.2,0,30.2-11.6,30.2-28S-178.5-139.6-198.7-139.6z M-198.7-93.2
	h-27.1v-36.6h27.1c12.8,0,19.1,6.8,19.1,18.3S-185.9-93.2-198.7-93.2z"/>
<path class="st0" d="M-73.3-60.1l-0.9-14.7c-0.6-9.5-4.6-15.4-12.5-17.9c8.6-2.8,15-10,15-22c0-16.3-12.9-24.8-30.8-24.8h-38.5v91.1
	h10.8v-38.9h29.7c10.9,0,15.7,4.4,16.3,17l0.4,9.7c0.1,4.9,0.9,9.2,2.9,12.2H-70C-72.2-51.6-73.1-56-73.3-60.1z M-101.3-97.1h-29.1
	v-32.8h27.8c11.9,0,19.7,4.9,19.7,15.7C-82.9-102.6-90.7-97.1-101.3-97.1z"/>
<path class="st0" d="M-3.2-46.4c26.5,0,43.6-19.3,43.6-47.6s-17.2-47.6-43.6-47.6S-46.9-122.3-46.9-94S-29.7-46.4-3.2-46.4z
	 M-3.2-56.2c-19.6,0-32.4-14.6-32.4-37.8s12.8-37.8,32.4-37.8S29.2-117.2,29.2-94S16.4-56.2-3.2-56.2z"/>
<path class="st0" d="M108.4-46.4c26.5,0,43.6-19.3,43.6-47.6s-17.2-47.6-43.6-47.6S64.7-122.3,64.7-94S81.9-46.4,108.4-46.4z
	 M108.4-56.2C88.8-56.2,76-70.8,76-94s12.8-37.8,32.4-37.8c19.6,0,32.4,14.6,32.4,37.8S128-56.2,108.4-56.2z"/>
<path class="st0" d="M240.5-129.8v-9.7h-60.3v91.1h10.8v-42.6h44.4v-9.7h-44.4v-29.1H240.5z"/>
<path class="st0" d="M-196.8,141.6c26.5,0,43.6-19.3,43.6-47.6s-17.2-47.6-43.6-47.6s-43.6,19.3-43.6,47.6S-223.3,141.6-196.8,141.6
	z M-196.8,131.8c-19.6,0-32.4-14.6-32.4-37.8s12.8-37.8,32.4-37.8s32.4,14.6,32.4,37.8S-177.2,131.8-196.8,131.8z"/>
<path class="st0" d="M-64.7,58.2v-9.7H-125v91.1h10.8V96.9h44.4v-9.7h-44.4V58.2H-64.7z"/>
<path class="st0" d="M207.8,94.4l30.8-44h-12l-12.5,17.9c-4.4,6.1-8.4,12.2-12.5,18.3c-4-6-8.1-12-12.3-18.2l-12.4-18h-12.5
	l31.1,44.4l-32.9,46.7h12l13.8-19.7c4.6-6.5,8.8-12.5,13.1-18.9c4.2,6.4,8.4,12.5,12.9,18.9l13.6,19.7h12.5L207.8,94.4z"/>
</svg>
