<?xml version="1.0" encoding="utf-8"?>
<!-- Generator: Adobe Illustrator 27.4.1, SVG Export Plug-In . SVG Version: 6.00 Build 0)  -->
<svg version="1.1" id="レイヤー_1" xmlns="http://www.w3.org/2000/svg" xmlns:xlink="http://www.w3.org/1999/xlink" x="0px"
	 y="0px" viewBox="0 0 448 284" style="enable-background:new 0 0 448 284;" xml:space="preserve">
<style type="text/css">
	.st0{fill:#FFFFFF;}
</style>
<path class="st0" d="M-246.4,45v-87.8h71.4V9h-62.4V45H-246.4z M-237.3,1.2h53.4V-35h-53.4V1.2z"/>
<path class="st0" d="M-163.7,45v-59.5h9.3V9.7c0,0,1.5-25.4,21.7-25.4c14.2,0,17.5,11.7,17.8,21.8h-9.3c-0.3-9.2-4.7-14.3-12.5-14.3
	c-8.1,0-17.7,5.4-17.7,31.4V45H-163.7z"/>
<path class="st0" d="M-75.2,45c-17.6,0-31.4-13.3-31.4-30.3c0-17,13.8-30.3,31.4-30.3s31.4,13.3,31.4,30.3
	C-43.7,31.6-57.6,45-75.2,45z M-75.2-8C-88-8-97.6,1.7-97.6,14.6c0,12.9,9.6,22.7,22.4,22.7s22.4-9.7,22.4-22.7
	C-52.7,1.7-62.4-8-75.2-8z"/>
<path class="st0" d="M-6.3,45c-17.6,0-31.4-13.3-31.4-30.3c0-17,13.8-30.3,31.4-30.3S25.1-2.4,25.1,14.6C25.1,31.6,11.3,45-6.3,45z
	 M-6.3-8c-12.8,0-22.4,9.7-22.4,22.7c0,12.9,9.6,22.7,22.4,22.7s22.4-9.7,22.4-22.7C16.1,1.7,6.5-8-6.3-8z"/>
<g>
	<g>
		<rect x="161.4" y="37" class="st0" width="8" height="8"/>
		<rect x="169.4" y="29" class="st0" width="8" height="8"/>
		<rect x="177.4" y="21" class="st0" width="8" height="8"/>
		<rect x="185.3" y="13" class="st0" width="8" height="8"/>
		<rect x="193.3" y="5.1" class="st0" width="8" height="8"/>
		<rect x="201.3" y="-2.9" class="st0" width="8" height="8"/>
		<rect x="209.3" y="-10.9" class="st0" width="8" height="8"/>
		<rect x="217.3" y="-18.9" class="st0" width="8" height="8"/>
		<rect x="225.3" y="-26.9" class="st0" width="8" height="8"/>
		<rect x="233.2" y="-34.8" class="st0" width="8" height="8"/>
		<rect x="241.2" y="-42.8" class="st0" width="8" height="8"/>
	</g>
	<g>
		
			<rect x="241.2" y="37" transform="matrix(-1 -4.467505e-11 4.467505e-11 -1 490.4049 81.9427)" class="st0" width="8" height="8"/>
		<rect x="233.2" y="29" transform="matrix(-1 -4.513069e-11 4.513069e-11 -1 474.4442 65.982)" class="st0" width="8" height="8"/>
		
			<rect x="225.3" y="21" transform="matrix(-1 -4.558677e-11 4.558677e-11 -1 458.4835 50.0213)" class="st0" width="8" height="8"/>
		
			<rect x="217.3" y="13" transform="matrix(-1 -4.513069e-11 4.513069e-11 -1 442.5228 34.0606)" class="st0" width="8" height="8"/>
		
			<rect x="209.3" y="5.1" transform="matrix(-1 -4.604285e-11 4.604285e-11 -1 426.562 18.0998)" class="st0" width="8" height="8"/>
		
			<rect x="201.3" y="-2.9" transform="matrix(-1 -4.513069e-11 4.513069e-11 -1 410.6013 2.1391)" class="st0" width="8" height="8"/>
		
			<rect x="193.3" y="-10.9" transform="matrix(-1 -4.604285e-11 4.604285e-11 -1 394.6406 -13.8216)" class="st0" width="8" height="8"/>
		
			<rect x="185.3" y="-18.9" transform="matrix(-1 -4.467505e-11 4.467505e-11 -1 378.6799 -29.7823)" class="st0" width="8" height="8"/>
		
			<rect x="177.4" y="-26.9" transform="matrix(-1 -4.513069e-11 4.513069e-11 -1 362.7192 -45.743)" class="st0" width="8" height="8"/>
		
			<rect x="169.4" y="-34.8" transform="matrix(-1 -4.467505e-11 4.467505e-11 -1 346.7585 -61.7038)" class="st0" width="8" height="8"/>
		
			<rect x="161.4" y="-42.8" transform="matrix(-1 -4.467505e-11 4.467505e-11 -1 330.7977 -77.6645)" class="st0" width="8" height="8"/>
	</g>
</g>
<path class="st0" d="M45.5-34.6l0.9-0.2c2.4-0.5,5.3-0.8,7.8-0.8c6,0,12.9,1.9,15.2,6.8h10c-2.2-10.3-13.3-14-22.9-14
	c-11.8,0-20.7,5.3-20.7,12.4V45h9.6V-8.4h34.4v-8.4H45.5V-34.6z"/>
<path class="st0" d="M121.5-9.6c-9.7,0-17.2-7.3-17.2-16.6c0-9.3,7.6-16.6,17.2-16.6s17.2,7.3,17.2,16.6
	C138.8-16.9,131.2-9.6,121.5-9.6z M121.5-38.6c-7,0-12.3,5.3-12.3,12.4c0,7.1,5.3,12.4,12.3,12.4s12.3-5.3,12.3-12.4
	C133.8-33.3,128.6-38.6,121.5-38.6z"/>
<path class="st0" d="M114.8,1.4l0.5-0.1c1.3-0.3,2.9-0.5,4.3-0.5c3.3,0,7.1,1,8.3,3.7h5.5c-1.2-5.6-7.3-7.7-12.5-7.7
	c-6.5,0-11.3,2.9-11.3,6.8V45h5.3V15.7h18.8v-4.6h-18.8V1.4z"/>
</svg>
